<svg width="39" height="42" viewBox="0 0 39 42" fill="none" xmlns="http://www.w3.org/2000/svg">
<path d="M19.35 0.330104C16.8845 0.328789 14.4429 0.78106 12.1648 1.66106C9.88674 2.54105 7.81684 3.83152 6.07347 5.45866C4.3301 7.0858 2.94746 9.01772 2.00461 11.1439C1.06175 13.2702 0.577177 15.549 0.578586 17.8501C0.578586 26.0301 14.0036 37.4301 18.1393 40.7501C18.4741 41.0203 18.902 41.169 19.3447 41.169C19.7873 41.169 20.2152 41.0203 20.55 40.7501C21.6857 39.8401 23.5179 38.3201 25.5857 36.4301C23.3679 34.0501 21.3643 31.2601 21.3643 28.9501C21.3787 26.6592 22.2937 24.453 23.9357 22.7501C22.7005 23.8517 21.0585 24.4675 19.35 24.4701C17.7878 24.4902 16.2656 24.0086 15.0384 23.1061C13.8113 22.2035 12.9537 20.9348 12.6094 19.5124C12.265 18.09 12.4548 16.6004 13.147 15.2931C13.8392 13.9858 14.9917 12.9401 16.4114 12.3314C17.8312 11.7226 19.4319 11.5877 20.9455 11.9493C22.4591 12.3108 23.7937 13.1468 24.7256 14.3173C25.6575 15.4877 26.1301 16.9215 26.0643 18.3784C25.9986 19.8354 25.3984 21.227 24.3643 22.3201C26.0662 20.7502 28.3155 19.8028 30.7027 19.6505C33.09 19.4981 35.4565 20.151 37.3714 21.4901C37.8496 20.3268 38.1105 19.0957 38.1429 17.8501C38.1443 15.5473 37.659 13.2668 36.7148 11.1393C35.7706 9.01179 34.3861 7.07898 32.6404 5.45158C30.8948 3.82417 28.8223 2.53413 26.5418 1.65531C24.2612 0.776488 21.8173 0.326158 19.35 0.330104Z" fill="#6F2CFF"/>
</svg>
